<region> sample=$VELOCITY/AmericanAnn_$VELOCITY_21.flac pitch_keycenter=21 lokey=0 hikey=21 pan_oncc$STEREO_CC=-100 ampeg_release_oncc$RELEASE_KEYTRACK_CC=1
<region> sample=$VELOCITY/AmericanAnn_$VELOCITY_24.flac pitch_keycenter=24 lokey=22 hikey=24 pan_oncc$STEREO_CC=-93 ampeg_release_oncc$RELEASE_KEYTRACK_CC=0.95
<region> sample=$VELOCITY/AmericanAnn_$VELOCITY_27.flac pitch_keycenter=27 lokey=25 hikey=27 pan_oncc$STEREO_CC=-87 ampeg_release_oncc$RELEASE_KEYTRACK_CC=0.90
<region> sample=$VELOCITY/AmericanAnn_$VELOCITY_30.flac pitch_keycenter=30 lokey=28 hikey=30 pan_oncc$STEREO_CC=-80 ampeg_release_oncc$RELEASE_KEYTRACK_CC=0.85
<region> sample=$VELOCITY/AmericanAnn_$VELOCITY_33.flac pitch_keycenter=33 lokey=31 hikey=33 pan_oncc$STEREO_CC=-73 ampeg_release_oncc$RELEASE_KEYTRACK_CC=0.80
<region> sample=$VELOCITY/AmericanAnn_$VELOCITY_36.flac pitch_keycenter=36 lokey=34 hikey=36 pan_oncc$STEREO_CC=-67 ampeg_release_oncc$RELEASE_KEYTRACK_CC=0.75
<region> sample=$VELOCITY/AmericanAnn_$VELOCITY_39.flac pitch_keycenter=39 lokey=37 hikey=39 pan_oncc$STEREO_CC=-60 ampeg_release_oncc$RELEASE_KEYTRACK_CC=0.70
<region> sample=$VELOCITY/AmericanAnn_$VELOCITY_42.flac pitch_keycenter=42 lokey=40 hikey=42 pan_oncc$STEREO_CC=-53 ampeg_release_oncc$RELEASE_KEYTRACK_CC=0.65
<region> sample=$VELOCITY/AmericanAnn_$VELOCITY_45.flac pitch_keycenter=45 lokey=43 hikey=45 pan_oncc$STEREO_CC=-47 ampeg_release_oncc$RELEASE_KEYTRACK_CC=0.60
<region> sample=$VELOCITY/AmericanAnn_$VELOCITY_48.flac pitch_keycenter=48 lokey=46 hikey=48 pan_oncc$STEREO_CC=-40 ampeg_release_oncc$RELEASE_KEYTRACK_CC=0.55
<region> sample=$VELOCITY/AmericanAnn_$VELOCITY_51.flac pitch_keycenter=51 lokey=49 hikey=51 pan_oncc$STEREO_CC=-33 ampeg_release_oncc$RELEASE_KEYTRACK_CC=0.50
<region> sample=$VELOCITY/AmericanAnn_$VELOCITY_54.flac pitch_keycenter=54 lokey=52 hikey=54 pan_oncc$STEREO_CC=-27 ampeg_release_oncc$RELEASE_KEYTRACK_CC=0.45
<region> sample=$VELOCITY/AmericanAnn_$VELOCITY_57.flac pitch_keycenter=57 lokey=55 hikey=57 pan_oncc$STEREO_CC=-20 ampeg_release_oncc$RELEASE_KEYTRACK_CC=0.40
<region> sample=$VELOCITY/AmericanAnn_$VELOCITY_60.flac pitch_keycenter=60 lokey=58 hikey=60 pan_oncc$STEREO_CC=-13 ampeg_release_oncc$RELEASE_KEYTRACK_CC=0.35
<region> sample=$VELOCITY/AmericanAnn_$VELOCITY_63.flac pitch_keycenter=63 lokey=61 hikey=63 pan_oncc$STEREO_CC=-07 ampeg_release_oncc$RELEASE_KEYTRACK_CC=0.30
<region> sample=$VELOCITY/AmericanAnn_$VELOCITY_66.flac pitch_keycenter=66 lokey=64 hikey=66 pan=0 ampeg_release_oncc$RELEASE_KEYTRACK_CC=0.25
<region> sample=$VELOCITY/AmericanAnn_$VELOCITY_69.flac pitch_keycenter=69 lokey=67 hikey=69 pan_oncc$STEREO_CC=07 ampeg_release_oncc$RELEASE_KEYTRACK_CC=0.20
<region> sample=$VELOCITY/AmericanAnn_$VELOCITY_72.flac pitch_keycenter=72 lokey=70 hikey=72 pan_oncc$STEREO_CC=13 ampeg_release_oncc$RELEASE_KEYTRACK_CC=0.15
<region> sample=$VELOCITY/AmericanAnn_$VELOCITY_75.flac pitch_keycenter=75 lokey=73 hikey=75 pan_oncc$STEREO_CC=20 ampeg_release_oncc$RELEASE_KEYTRACK_CC=0.10
<region> sample=$VELOCITY/AmericanAnn_$VELOCITY_78.flac pitch_keycenter=78 lokey=76 hikey=78 pan_oncc$STEREO_CC=27 ampeg_release_oncc$RELEASE_KEYTRACK_CC=0.05
<region> sample=$VELOCITY/AmericanAnn_$VELOCITY_81.flac pitch_keycenter=81 lokey=79 hikey=81 pan_oncc$STEREO_CC=33 ampeg_release_oncc$RELEASE_KEYTRACK_CC=0
<region> sample=$VELOCITY/AmericanAnn_$VELOCITY_84.flac pitch_keycenter=84 lokey=82 hikey=84 pan_oncc$STEREO_CC=40 ampeg_release_oncc$RELEASE_KEYTRACK_CC=0
<region> sample=$VELOCITY/AmericanAnn_$VELOCITY_87.flac pitch_keycenter=87 lokey=85 hikey=87 pan_oncc$STEREO_CC=47 ampeg_release_oncc$RELEASE_KEYTRACK_CC=0
<region> sample=$VELOCITY/AmericanAnn_$VELOCITY_90.flac pitch_keycenter=90 lokey=88 hikey=89 pan_oncc$STEREO_CC=53 ampeg_release_oncc$RELEASE_KEYTRACK_CC=0

<region> sample=$VELOCITY/AmericanAnn_$VELOCITY_90.flac pitch_keycenter=90 lokey=90 hikey=90 loop_mode=one_shot pan_oncc$STEREO_CC=60
<region> sample=$VELOCITY/AmericanAnn_$VELOCITY_93.flac pitch_keycenter=93 lokey=91 hikey=93 loop_mode=one_shot pan_oncc$STEREO_CC=67
<region> sample=$VELOCITY/AmericanAnn_$VELOCITY_96.flac pitch_keycenter=96 lokey=94 hikey=96 loop_mode=one_shot pan_oncc$STEREO_CC=73
<region> sample=$VELOCITY/AmericanAnn_$VELOCITY_99.flac pitch_keycenter=99 lokey=97 hikey=99 loop_mode=one_shot pan_oncc$STEREO_CC=80
<region> sample=$VELOCITY/AmericanAnn_$VELOCITY_102.flac pitch_keycenter=102 lokey=100 hikey=102 loop_mode=one_shot pan_oncc$STEREO_CC=87
<region> sample=$VELOCITY/AmericanAnn_$VELOCITY_105.flac pitch_keycenter=105 lokey=103 hikey=105 loop_mode=one_shot pan_oncc$STEREO_CC=93
<region> sample=$VELOCITY/AmericanAnn_$VELOCITY_108.flac pitch_keycenter=108 lokey=106 hikey=127 loop_mode=one_shot pan_oncc$STEREO_CC=100